<svg id="Layer_1" data-name="Layer 1" xmlns="http://www.w3.org/2000/svg" xmlns:xlink="http://www.w3.org/1999/xlink" viewBox="0 0 260 260"><defs><style>.cls-1{fill:none;}.cls-2{clip-path:url(#clip-path);}.cls-3{fill:#fbb617;}.cls-4{fill:#2fa5de;}.cls-5{fill:#231f20;}.cls-6{fill:#ce0e2d;}</style><clipPath id="clip-path"><rect class="cls-1" x="67" y="43.1" width="125" height="171.54"/></clipPath></defs><title>Artboard 1</title><g class="cls-2"><path class="cls-3" d="M188.6,173.21,71.79,193.35a4.1,4.1,0,0,1-4.79-4v-122a4.09,4.09,0,0,1,3.4-4L187.21,43.16a4.09,4.09,0,0,1,4.79,4v122a4.09,4.09,0,0,1-3.4,4Z"/></g><path d="M110,140.6c0,3.49,1.62,5.12,4.1,4.78s4-2.43,4-5.92V104.53l9.72-1.55v37.56c.08,9.22-5.5,17.45-14.81,18.73l-.59.08c-10.3,1.41-15.93-5.93-15.93-16.88l-.1-30.54a4.59,4.59,0,0,1,3.88-4.55l9.75-1.52,0,34.74Z"/><path d="M146.44,112.51c3-.44,4.36,1.34,4.4,5.56l0,2.11c0,3.4-1.53,6-4.29,6.61l-1.36.19V112.7l1.23-.19ZM175.63,53.2,80,70.57a7.14,7.14,0,0,0-5.85,7v99.57a7.13,7.13,0,0,0,8.35,7l57.4-10.06a7.12,7.12,0,0,0,5.89-7V138.51l3.63-.52c8.81-1.26,13.68-9.6,13.57-20.64-.12-12.11-5.13-19-13.92-17.68l-16.39,2.49v60.07L87,170.58V82.48l84.24-15.69v73.48l-10.5-1.22a3.69,3.69,0,0,0-4.12,3.66v28.76l9.91-18.78L180,154.31a3.6,3.6,0,0,0,4-3.58V60.2a7.12,7.12,0,0,0-8.39-7Z"/><path d="M102.14,92.44v-2.5a.89.89,0,0,0-1-1,1.39,1.39,0,0,0-1,1.33V99a.86.86,0,0,0,1,.91,1.3,1.3,0,0,0,1-1.26V96.11l2.74-.49V98.5a5,5,0,0,1-4.09,5l-.17,0c-2.78.48-4.26-1.52-4.26-4.18V90.59a5.36,5.36,0,0,1,4.28-5.13l.14,0c3-.58,4.11,1.78,4.12,4.17v2.33l-2.77.51Z"/><path d="M114,101l-2.61.44V94.34l-1.51.27v7l-3.78.65,0-16.39a1.39,1.39,0,0,1,1.14-1.39l2.58-.5v7.12l1.51-.28V83.74l3.83-.73,0,16.56A1.43,1.43,0,0,1,114,101Z"/><path d="M119.75,91.47l-.54,4.43,1.31-.22-.54-4.2a.12.12,0,0,0-.23,0Zm1.37,8.3-.23-1.94-1.87.32-.19,2-2.67.45,2.31-18.22,3.39-.64,2.91,17.41-3.65.62Z"/><path d="M129.33,87.45a1.73,1.73,0,0,0,1.22-1.82v-.56c0-1.12-.4-1.58-1.24-1.42l-.36.07v3.79l.37-.06Zm-3.92-6.39,4.67-.89c2.49-.47,3.9,1.33,3.91,3.77,0,2.63-.52,3.41-1.61,4.11v.06a2.28,2.28,0,0,1,1.69,2.42c-.06,3.65-.06,4,0,4.71a9.56,9.56,0,0,0,.43,2.28L131,98.1a5.15,5.15,0,0,1-.49-2.45V91.28c0-.56-.33-.91-.84-.82l-.67.12,0,7.85-3.59.6-.06-18Z"/><path d="M144,95.91l-1.93.32-.37-.69A4.23,4.23,0,0,1,139.24,97c-1.35.22-4-.34-4-5.58l0-7c0-4,2.55-6,4.43-6.39l.19,0c2.19-.41,3.88,1.8,3.89,4.11v2.28l-2.6.48v-2a1.08,1.08,0,0,0-1.21-1.17,1.66,1.66,0,0,0-1.17,1.61l0,9.09a.84.84,0,0,0,.93.88,1.21,1.21,0,0,0,.92-1.2v-1.7l-.89.15,0-3.11L144,86.7l.05,9.21Z"/><path d="M149,84.23l2.66-.45,0,3.42-2.63.43,0,3.67,3.67-.63,0,3.77-5.89,1a1.33,1.33,0,0,1-1.55-1.3l-.09-15.79a1.24,1.24,0,0,1,1-1.23l6.4-1.21,0,3.9-3.69.68,0,3.76Z"/><path d="M157.49,90.21c.79-.13,1.65-.63,1.65-1.53l-.07-9.12c0-1.19-.68-1.2-1.66-1l.08,11.67Zm5.22-3.38c.06,4.13-2.28,6.34-4.49,6.71l-4.24.7-.12-18.57,5-1c1.93-.36,3.7,1,3.73,5.13l.08,7Z"/><path d="M167.31,165.66l.58-.87a1.6,1.6,0,0,0,1.32.34c.4-.08.64-.3.64-.59v0c0-.28-.15-.39-.89-.45-.9-.07-1.47-.22-1.47-1.19h0a1.92,1.92,0,0,1,1.56-1.84,2,2,0,0,1,1.65.25l-.51.95A1.61,1.61,0,0,0,169,162c-.37.08-.57.31-.57.55v0c0,.32.19.39,1,.44s1.41.33,1.4,1.21v0a1.85,1.85,0,0,1-1.63,1.86,2.3,2.3,0,0,1-1.88-.44Z"/><polygon points="171.69 160.48 172.74 160.23 173.9 162.16 175.08 159.69 176.14 159.44 176.11 164.76 175.14 164.94 175.16 161.5 173.9 163.99 173.87 164 172.64 162.06 172.63 165.4 171.67 165.57 171.69 160.48 171.69 160.48"/><path class="cls-4" d="M84.58,178.11a4.9,4.9,0,0,1-4-2,5.08,5.08,0,0,1-.93-3V80.63a4.87,4.87,0,0,1,4-4.79l89.63-16.6a4.88,4.88,0,0,1,4.95,2.08,5,5,0,0,1,.82,2.84v84.3a1.13,1.13,0,0,1-1.28,1.13L163,147.68l-2.53,6.92,1.07-8.6a1.2,1.2,0,0,1,1.35-1l13.6,1.77,0-82.61a2.44,2.44,0,0,0-.54-1.58,2.34,2.34,0,0,0-2.2-.79L84.16,78.35a2.33,2.33,0,0,0-1.9,2.28v92.55a2.36,2.36,0,0,0,.38,1.32,2.33,2.33,0,0,0,2.33,1s41.29-5.8,41.12-5.76L85.41,178a4.73,4.73,0,0,1-.83.07Z"/><path d="M75.63,201.09h-.85v1.26h.85a.6.6,0,0,0,.66-.62.61.61,0,0,0-.66-.64m0,2.07h-.89v1.74h-.9v-4.61h1.79a1.44,1.44,0,1,1,0,2.87"/><path d="M80,201.09h-.85v1.22H80a.61.61,0,1,0,0-1.22m.7,3.81-.9-1.84h-.65v1.84h-.9v-4.61h1.81a1.39,1.39,0,0,1,1.49,1.41,1.23,1.23,0,0,1-.84,1.21l1,2Z"/><polygon points="82.84 204.9 82.84 200.29 85.88 200.29 85.88 201.09 83.74 201.09 83.74 202.17 85.56 202.17 85.56 202.98 83.74 202.98 83.74 204.1 85.88 204.1 85.88 204.9 82.84 204.9 82.84 204.9"/><path d="M88.36,204.94a2.19,2.19,0,0,1-1.69-.61l.59-.58a1.5,1.5,0,0,0,1.11.39c.53,0,.82-.2.82-.57a.53.53,0,0,0-.14-.39.65.65,0,0,0-.41-.16l-.56-.08a1.56,1.56,0,0,1-.89-.38,1.22,1.22,0,0,1-.33-.91,1.42,1.42,0,0,1,1.6-1.4,1.93,1.93,0,0,1,1.49.54l-.57.56a1.27,1.27,0,0,0-.94-.32c-.48,0-.72.27-.72.59a.45.45,0,0,0,.14.33.86.86,0,0,0,.43.18l.54.08a1.47,1.47,0,0,1,.88.35,1.29,1.29,0,0,1,.36,1c0,.89-.75,1.4-1.71,1.4"/><polygon points="91.25 204.9 91.25 200.29 94.28 200.29 94.28 201.09 92.15 201.09 92.15 202.17 93.97 202.17 93.97 202.98 92.15 202.98 92.15 204.1 94.28 204.1 94.28 204.9 91.25 204.9 91.25 204.9"/><polygon points="98.22 204.9 96.39 202.07 96.39 204.9 95.49 204.9 95.49 200.29 96.3 200.29 98.12 203.11 98.12 200.29 99.02 200.29 99.02 204.9 98.22 204.9 98.22 204.9"/><polygon points="102.19 201.09 102.19 204.9 101.29 204.9 101.29 201.09 100.08 201.09 100.08 200.29 103.39 200.29 103.39 201.09 102.19 201.09 102.19 201.09"/><polygon points="104.45 204.9 104.45 200.29 107.49 200.29 107.49 201.09 105.35 201.09 105.35 202.17 107.17 202.17 107.17 202.98 105.35 202.98 105.35 204.1 107.49 204.1 107.49 204.9 104.45 204.9 104.45 204.9"/><path d="M111,201.38a.79.79,0,0,0-.67-.29h-.68v3h.68a.79.79,0,0,0,.67-.29c.17-.2.2-.53.2-1.23s0-1-.2-1.2m.63,3.08a1.65,1.65,0,0,1-1.22.44H108.7v-4.61h1.66a1.65,1.65,0,0,1,1.22.44,2.32,2.32,0,0,1,.47,1.85,2.4,2.4,0,0,1-.47,1.88"/><path d="M117,203H116v1.14H117a.57.57,0,1,0,0-1.14m-.06-1.87H116v1.06h.88a.53.53,0,1,0,0-1.06m.15,3.81h-1.94v-4.61H117a1.25,1.25,0,0,1,1.42,1.29,1.06,1.06,0,0,1-.57,1,1.07,1.07,0,0,1,.64,1,1.28,1.28,0,0,1-1.41,1.33"/><polygon points="121.48 203.01 121.48 204.9 120.58 204.9 120.58 203.01 119.2 200.29 120.17 200.29 121.04 202.15 121.89 200.29 122.86 200.29 121.48 203.01 121.48 203.01"/><path class="cls-5" d="M132,212.7c0,.85.2,1.49.88,1.49a.74.74,0,0,0,.64-.36v-.58l-.46,0v-.41h1.64v.41l-.33,0v1.35h-.43c0-.1-.08-.2-.19-.2a3.48,3.48,0,0,1-1,.25c-1,0-1.7-.58-1.7-1.92a1.76,1.76,0,0,1,1.82-2,3.11,3.11,0,0,1,.86.21c.08,0,.12-.06.15-.16h.37l0,1.25h-.4c-.16-.64-.43-.88-1-.88s-.94.55-.94,1.52Z"/><path class="cls-5" d="M136.55,213v-.09c0-.49-.07-.71-.34-.71s-.42.36-.43.8Zm-.31-1.12A1.06,1.06,0,0,1,137.4,213c0,.07,0,.21,0,.29h-1.61c0,.5.11.88.6.88.33,0,.49-.19.62-.48l.38.13a1.1,1.1,0,0,1-1.14.8,1.24,1.24,0,0,1-1.33-1.36,1.31,1.31,0,0,1,1.33-1.45Z"/><path class="cls-5" d="M138.78,211.87l0,.51h0a.89.89,0,0,1,.9-.55c.54,0,.84.25.84.88v1.46l.33,0v.38H139.5v-.38l.25,0v-1.36c0-.29,0-.48-.33-.48s-.51.17-.51.61v1.23l.27,0v.38h-1.44v-.38l.33,0v-1.86l-.33,0v-.37l1,0Z"/><path class="cls-5" d="M142.82,213v-.09c0-.49-.07-.71-.34-.71s-.42.36-.43.8Zm-.31-1.12a1.07,1.07,0,0,1,1.16,1.19c0,.07,0,.21,0,.29h-1.61c0,.5.11.88.6.88a.63.63,0,0,0,.61-.48l.39.13a1.11,1.11,0,0,1-1.14.8,1.24,1.24,0,0,1-1.33-1.36,1.31,1.31,0,0,1,1.33-1.45Z"/><polygon class="cls-5" points="146.23 212.44 147.54 212.44 147.54 211.27 147.19 211.24 147.19 210.82 148.78 210.82 148.78 211.23 148.42 211.27 148.42 214.13 148.78 214.17 148.78 214.58 147.19 214.58 147.19 214.17 147.54 214.13 147.54 212.91 146.23 212.91 146.23 214.13 146.58 214.17 146.58 214.58 144.99 214.58 144.99 214.17 145.34 214.13 145.34 211.27 144.99 211.24 144.99 210.82 146.58 210.82 146.58 211.23 146.23 211.27 146.23 212.44 146.23 212.44"/><path class="cls-5" d="M150.62,213.79v-.33h-.21c-.33,0-.43.13-.43.41s.09.37.29.37.35-.12.35-.45Zm0-.61v-.39c0-.41-.09-.65-.47-.65-.16,0-.31,0-.31.17s0,.05,0,.08h.2a.78.78,0,0,1,0,.21.37.37,0,0,1-.42.37.38.38,0,0,1-.41-.42c0-.43.38-.72,1.07-.72s1.13.24,1.13,1V214c0,.2,0,.29.12.29a.41.41,0,0,0,.18-.05l.07.28a1.16,1.16,0,0,1-.6.17.5.5,0,0,1-.56-.4.79.79,0,0,1-.75.4c-.43,0-.79-.19-.79-.7s.4-.76,1.11-.76Z"/><path class="cls-5" d="M153.56,213.79v-.33h-.21c-.34,0-.44.13-.44.41s.09.37.3.37.35-.12.35-.45Zm0-.61v-.39c0-.41-.1-.65-.48-.65-.16,0-.31,0-.31.17s0,.05,0,.08H153a1.52,1.52,0,0,1,0,.21.37.37,0,0,1-.42.37.38.38,0,0,1-.41-.42c0-.43.38-.72,1.08-.72s1.12.24,1.12,1V214c0,.2,0,.29.12.29a.41.41,0,0,0,.18-.05l.07.28a1.16,1.16,0,0,1-.6.17.5.5,0,0,1-.56-.4.79.79,0,0,1-.75.4c-.43,0-.79-.19-.79-.7s.4-.76,1.11-.76Z"/><path class="cls-5" d="M155,213.71h.33a.76.76,0,0,0,.79.56c.3,0,.44-.1.44-.3s-.24-.28-.54-.33c-.45-.09-1-.18-1-.89a.92.92,0,0,1,1-.92,1,1,0,0,1,.51.13.23.23,0,0,0,.11,0c.07,0,.08,0,.11-.13H157v.84h-.32a.67.67,0,0,0-.68-.51c-.21,0-.4.08-.4.27s.23.27.52.33c.45.08,1,.19,1,.91a.89.89,0,0,1-1,.94,1.33,1.33,0,0,1-.67-.17l-.1,0c-.06,0-.08,0-.11.16H155v-.9Z"/><path class="cls-5" d="M161.22,210.82l.05,1h-.15c-.14-.65-.33-.78-.9-.78h-.64v1.58h.33c.47,0,.57-.17.66-.66h.12v1.59h-.13c-.09-.57-.18-.71-.71-.71h-.27v1.57l.74,0v.16h-1.64v-.16l.46,0V211l-.46,0v-.17Z"/><path class="cls-5" d="M162.71,212.1c-.6,0-.73.57-.73,1.13s.13,1.16.74,1.16.73-.56.73-1.13-.13-1.16-.74-1.16Zm0-.24c.77,0,1.16.57,1.16,1.38s-.46,1.4-1.19,1.4-1.16-.56-1.16-1.38a1.24,1.24,0,0,1,1.19-1.4Z"/><path class="cls-5" d="M165,213.76c0,.38.11.57.55.57a.72.72,0,0,0,.77-.76v-1.43l-.39,0v-.18l.78,0v2.46l.36,0v.18h-.68l0-.45a1.09,1.09,0,0,1-.92.51c-.58,0-.82-.3-.82-.89v-1.61l-.37,0v-.18l.76,0v1.86Z"/><path class="cls-5" d="M168.18,211.89l0,.5a1.11,1.11,0,0,1,.94-.53c.59,0,.81.3.81.93v1.58l.36,0v.18h-1.14v-.18l.39,0v-1.58c0-.43-.11-.64-.55-.64a.75.75,0,0,0-.79.72v1.5l.4,0v.18h-1.14v-.18l.35,0v-2.23l-.35,0v-.17l.7,0Z"/><path class="cls-5" d="M172.59,213.64v-.84a.63.63,0,0,0-.69-.68c-.57,0-.77.45-.77,1.12,0,.52.12,1.1.71,1.1a.73.73,0,0,0,.75-.7Zm0-1.44v-1.4l-.44-.05v-.17l.84,0v3.82l.39,0v.18h-.76l0-.42a1,1,0,0,1-.87.48c-.7,0-1-.54-1-1.34s.46-1.44,1.14-1.44a.92.92,0,0,1,.76.34Z"/><path class="cls-5" d="M175.27,213.8v-.41h-.36c-.52,0-.71.22-.71.52s.14.48.46.48a.58.58,0,0,0,.61-.59Zm0-.63v-.35c0-.48-.11-.75-.55-.75-.16,0-.51,0-.51.24,0,0,0,.05,0,.07h.17a1.81,1.81,0,0,1,0,.19.24.24,0,0,1-.26.25.27.27,0,0,1-.29-.3c0-.38.37-.66.9-.66s.9.29.9,1v1.24c0,.25,0,.32.18.32a.47.47,0,0,0,.17,0l0,.17a.62.62,0,0,1-.31.07.4.4,0,0,1-.46-.38.94.94,0,0,1-.78.38c-.42,0-.75-.18-.75-.68s.5-.79,1.15-.79Z"/><path class="cls-5" d="M176.55,212.15h-.41v-.23h.41v-.7l.33-.11h.06v.81h.59v.23h-.59V214c0,.31.08.43.3.43s.3-.07.39-.38l.18.05c-.1.43-.31.59-.64.59a.54.54,0,0,1-.62-.6v-1.89Z"/><path class="cls-5" d="M178.67,210.69a.25.25,0,0,1,.27.28.24.24,0,0,1-.26.27c-.2,0-.28-.11-.28-.26a.26.26,0,0,1,.27-.29Zm.25,1.21v2.47l.41,0v.18h-1.2v-.18l.4,0v-2.23l-.41,0v-.18l.8,0Z"/><path class="cls-5" d="M180.89,212.1c-.6,0-.73.57-.73,1.13s.14,1.16.75,1.16.73-.56.73-1.13-.13-1.16-.75-1.16Zm0-.24c.77,0,1.16.57,1.16,1.38s-.46,1.4-1.19,1.4-1.17-.56-1.17-1.38a1.25,1.25,0,0,1,1.2-1.4Z"/><path class="cls-5" d="M183.25,211.89l0,.5a1.11,1.11,0,0,1,.95-.53c.58,0,.8.3.8.93v1.58l.37,0v.18h-1.15v-.18l.4,0v-1.58c0-.43-.11-.64-.56-.64a.75.75,0,0,0-.79.72v1.5l.4,0v.18h-1.14v-.18l.35,0v-2.23l-.35,0v-.17l.7,0Z"/><polygon class="cls-6" points="144.39 193.56 139.95 201.24 130.97 201.23 129.34 204.06 138.32 204.06 136.45 207.31 139.71 207.31 147.65 193.56 144.39 193.56 144.39 193.56"/><polygon class="cls-6" points="150.97 193.56 146.54 201.24 144.14 201.23 142.51 204.06 144.91 204.06 143.04 207.31 146.3 207.31 154.24 193.56 150.97 193.56 150.97 193.56"/><polygon class="cls-6" points="155.79 193.56 147.85 207.31 151.12 207.31 159.05 193.56 155.79 193.56 155.79 193.56"/><polygon class="cls-6" points="165.25 193.56 159.51 203.5 159.51 194.34 156.76 199.05 156.76 201.24 155.49 201.23 153.85 204.06 156.76 204.06 156.76 207.31 160.57 207.31 168.51 193.56 165.25 193.56 165.25 193.56"/><path class="cls-6" d="M176.6,196.48h8.94l1.71-2.92h-11.9a1.59,1.59,0,0,0-1.38.79l-3.23,5.52a1.23,1.23,0,0,0,1.06,1.84h4.28l-1.45,2.39a.77.77,0,0,1-.65.37h-4.93v-10.1l-2.75,4.71v2.16H165l-1.64,2.83h2.9v3.24h8.93a1.61,1.61,0,0,0,1.38-.8l3.41-5.83a1.22,1.22,0,0,0-1.05-1.83h-4.13l1.2-2a.65.65,0,0,1,.55-.32Z"/></svg>